name analog
datacolumns 19
datarows 47
range 0.0 0.023
endheader
time	ground_force_vx	ground_force_vy	ground_force_vz	ground_force_px	ground_force_py	ground_force_pz	l_ground_force_vx	l_ground_force_vy	l_ground_force_vz	l_ground_force_px	l_ground_force_py	l_ground_force_pz	ground_torque_x	ground_torque_y	ground_torque_z	l_ground_torque_x	l_ground_torque_y	l_ground_torque_z
0.0	-0.0	-0.0	-0.0	-2.363851308822632	66.41692352294922	-444.0075378417969	10.039097785949709	-59.48467254638672	-340.77215576171875	-0.0	-0.0	-0.0	-0.0	-0.0	-0.0	83709.46875	-38246.4453125	6473.61767578125
0.0005	-0.0	-0.0	-0.0	-2.5280799865722656	66.35724639892578	-444.5340270996094	10.216483116149902	-59.66167831420898	-341.2381591796875	-0.0	-0.0	-0.0	-0.0	-0.0	-0.0	83763.546875	-38294.7890625	6622.06689453125
0.001	-0.0	-0.0	-0.0	-2.14105224609375	66.38743591308594	-443.593994140625	10.320331573486328	-59.45560073852539	-340.59649658203125	-0.0	-0.0	-0.0	-0.0	-0.0	-0.0	83608.6953125	-38162.98046875	6582.57275390625
0.0015	-0.0	-0.0	-0.0	-2.244946956634521	66.40214538574219	-443.94720458984375	10.083003997802734	-58.93978118896485	-342.3445129394531	-0.0	-0.0	-0.0	-0.0	-0.0	-0.0	83966.59375	-38369.375	6612.41552734375
0.002	-0.0	-0.0	-0.0	-2.2755300998687744	65.68778228759766	-442.4712219238281	10.0535888671875	-59.1454963684082	-341.7042541503906	-0.0	-0.0	-0.0	-0.0	-0.0	-0.0	83746.1484375	-38459.2109375	6617.296875
0.0025	-0.0	-0.0	-0.0	-2.230262756347656	66.23848724365234	-442.88763427734375	9.921008110046388	-59.0123176574707	-341.12115478515625	-0.0	-0.0	-0.0	-0.0	-0.0	-0.0	83936.359375	-38164.9140625	6577.48388671875
0.003	-0.0	-0.0	-0.0	-2.0372660160064697	66.3730239868164	-442.0589294433594	10.09713649749756	-58.6890983581543	-342.4031066894531	-0.0	-0.0	-0.0	-0.0	-0.0	-0.0	84095.7265625	-38281.47265625	6567.951171875
0.0035	-0.0	-0.0	-0.0	-2.5890798568725586	65.89839172363281	-441.4749145507813	9.98073673248291	-59.1016731262207	-342.0542297363281	-0.0	-0.0	-0.0	-0.0	-0.0	-0.0	83986.2578125	-38540.73046875	6508.45947265625
0.004	-0.0	-0.0	-0.0	-2.529093027114868	65.36156463623047	-441.4749145507813	9.93560791015625	-58.70330810546875	-342.8098449707031	-0.0	-0.0	-0.0	-0.0	-0.0	-0.0	84273.2734375	-38202.41015625	6547.908203125
0.0045000000000000005	-0.0	-0.0	-0.0	-2.558170318603516	65.55661010742188	-440.2435607910156	9.490077018737791	-58.777099609375	-342.7453308105469	-0.0	-0.0	-0.0	-0.0	-0.0	-0.0	84024.0546875	-38306.703125	6617.2294921875
0.005	-0.0	-0.0	-0.0	-2.4375452995300293	65.2146224975586	-440.5400390625	9.448795318603516	-59.22078704833984	-342.11181640625	-0.0	-0.0	-0.0	-0.0	-0.0	-0.0	84048.1640625	-38035.890625	6299.7412109375
0.0055	-0.0	-0.0	-0.0	-2.601499080657959	64.67706298828125	-440.1874694824219	8.722423553466797	-58.86520385742188	-343.45196533203125	-0.0	-0.0	-0.0	-0.0	-0.0	-0.0	84272.140625	-38047.375	6393.87451171875
0.006	-0.0	-0.0	-0.0	-2.7368080615997314	64.39519500732422	-439.2989807128906	8.91674518585205	-58.87677383422852	-343.3392944335937	-0.0	-0.0	-0.0	-0.0	-0.0	-0.0	84130.0625	-37685.93359375	6230.4306640625
0.006500000000000001	-0.0	-0.0	-0.0	-2.465973377227783	64.4555892944336	-438.7628784179688	8.413212776184082	-59.02738571166992	-341.5829467773437	-0.0	-0.0	-0.0	-0.0	-0.0	-0.0	84003.109375	-37706.58203125	6225.224609375
0.007	-0.0	-0.0	-0.0	-2.455036401748657	64.18816375732422	-438.4094543457031	8.147116661071777	-59.02731323242188	-342.393310546875	-0.0	-0.0	-0.0	-0.0	-0.0	-0.0	83993.0	-37555.9765625	6156.14794921875
0.0075	-0.0	-0.0	-0.0	-2.333724021911621	63.9956283569336	-436.331787109375	7.866779327392578	-59.58552932739258	-341.638427734375	-0.0	-0.0	-0.0	-0.0	-0.0	-0.0	83946.6953125	-37318.1875	6111.86865234375
0.008	-0.0	-0.0	-0.0	-2.3336875438690186	64.29534912109375	-436.586669921875	8.015865325927734	-59.5429573059082	-342.75506591796875	-0.0	-0.0	-0.0	-0.0	-0.0	-0.0	84087.734375	-37400.27734375	6063.37158203125
0.0085	-0.0	-0.0	-0.0	-2.5303938388824463	63.62080383300781	-435.8240356445313	7.3950347900390625	-59.7759895324707	-343.0487670898437	-0.0	-0.0	-0.0	-0.0	-0.0	-0.0	84124.65625	-37141.37890625	5897.95751953125
0.009000000000000001	-0.0	-0.0	-0.0	-2.1693365573883057	63.63910675048828	-435.86279296875	7.110995292663574	-59.92821502685547	-343.92974853515625	-0.0	-0.0	-0.0	-0.0	-0.0	-0.0	84241.859375	-37059.0546875	5808.712890625
0.0095	-0.0	-0.0	-0.0	-2.380472421646118	63.446754455566406	-436.1213989257813	6.681501388549805	-60.15118408203125	-342.3905029296875	-0.0	-0.0	-0.0	-0.0	-0.0	-0.0	84229.0078125	-36850.4609375	5769.24755859375
0.01	-0.0	-0.0	-0.0	-2.4368224143981934	63.59214782714844	-435.582275390625	6.6998395919799805	-60.13307189941406	-343.03289794921875	-0.0	-0.0	-0.0	-0.0	-0.0	-0.0	84342.671875	-36815.2109375	5661.4794921875
0.0105	-0.0	-0.0	-0.0	-2.826668739318848	63.15139389038086	-434.7645263671875	6.312490463256836	-60.147071838378906	-343.8411865234375	-0.0	-0.0	-0.0	-0.0	-0.0	-0.0	84243.375	-36484.58203125	5467.68017578125
0.011	-0.0	-0.0	-0.0	-2.6150994300842285	62.98200225830078	-434.6883850097656	5.542033672332764	-60.32371520996094	-344.8516845703125	-0.0	-0.0	-0.0	-0.0	-0.0	-0.0	84118.28125	-36321.8046875	5362.48779296875
0.0115	-0.0	-0.0	-0.0	-2.793447494506836	63.01519775390625	-434.4665832519531	5.560874938964844	-60.53809356689453	-342.7374267578125	-0.0	-0.0	-0.0	-0.0	-0.0	-0.0	84250.125	-35990.54296875	5382.767578125
0.012	-0.0	-0.0	-0.0	-3.169804573059082	62.73389053344727	-433.8703308105469	5.103477478027344	-60.63024139404297	-345.3657531738281	-0.0	-0.0	-0.0	-0.0	-0.0	-0.0	84392.859375	-35782.40625	5279.47900390625
0.0125	-0.0	-0.0	-0.0	-2.9637131690979004	62.52791213989258	-434.654541015625	4.5990800857543945	-60.64936447143555	-345.5722351074219	-0.0	-0.0	-0.0	-0.0	-0.0	-0.0	84606.5078125	-35675.62109375	5044.67724609375
0.013000000000000001	-0.0	-0.0	-0.0	-3.334589719772339	62.521934509277344	-433.1082763671875	4.748849391937256	-61.10482406616211	-346.3261413574219	-0.0	-0.0	-0.0	-0.0	-0.0	-0.0	84298.109375	-35425.359375	5041.8896484375
0.0135	-0.0	-0.0	-0.0	-3.334735631942749	62.59714889526367	-432.4266662597656	3.91708254814148	-60.93613052368164	-345.0161437988281	-0.0	-0.0	-0.0	-0.0	-0.0	-0.0	84054.609375	-35207.9921875	4861.44482421875
0.014	-0.0	-0.0	-0.0	-3.026629447937012	62.50794982910156	-431.3418273925781	3.548431396484375	-61.45051956176758	-345.4432678222656	-0.0	-0.0	-0.0	-0.0	-0.0	-0.0	84271.0859375	-34870.1328125	4728.55615234375
0.0145	-0.0	-0.0	-0.0	-2.9372003078460693	62.49414825439453	-430.25531005859375	3.343536853790283	-61.54654312133789	-345.581298828125	-0.0	-0.0	-0.0	-0.0	-0.0	-0.0	84423.3671875	-34791.30078125	4655.2900390625
0.015	-0.0	-0.0	-0.0	-3.541005373001098	62.43932723999024	-431.5316162109375	2.900055408477783	-61.62841796875	-346.3044738769531	-0.0	-0.0	-0.0	-0.0	-0.0	-0.0	84149.390625	-34489.484375	4536.3466796875
0.0155	-0.0	-0.0	-0.0	-3.197906017303467	62.219512939453125	-430.6629943847656	2.60666298866272	-62.00182342529297	-347.8088073730469	-0.0	-0.0	-0.0	-0.0	-0.0	-0.0	84628.0078125	-34209.8828125	4378.63037109375
0.016	-0.0	-0.0	-0.0	-3.5758161544799805	62.63142776489258	-427.9168701171875	1.6649386882781982	-62.620079040527344	-346.8421325683594	-0.0	-0.0	-0.0	-0.0	-0.0	-0.0	84626.046875	-33756.66796875	4147.35888671875
0.0165	-0.0	-0.0	-0.0	-3.327987670898437	62.2945442199707	-429.9577941894531	1.4880526065826416	-62.70839691162109	-348.6138000488281	-0.0	-0.0	-0.0	-0.0	-0.0	-0.0	84794.625	-33488.37109375	4213.4521484375
0.017	-0.0	-0.0	-0.0	-3.225142240524292	62.28860092163086	-429.605224609375	0.6690143942832947	-63.088680267333984	-348.3465881347656	-0.0	-0.0	-0.0	-0.0	-0.0	-0.0	84617.3828125	-33498.078125	3966.429443359375
0.0175	-0.0	-0.0	-0.0	-3.492737293243408	62.43986892700195	-428.6533203125	0.389469712972641	-63.47637176513672	-347.6719665527344	-0.0	-0.0	-0.0	-0.0	-0.0	-0.0	85030.0	-33353.02734375	3746.965576171875
0.018000000000000002	-0.0	-0.0	-0.0	-3.519682645797729	62.55606460571289	-429.0602416992188	-0.4030994474887848	-63.85658264160156	-349.1209411621094	-0.0	-0.0	-0.0	-0.0	-0.0	-0.0	85158.375	-32867.9375	3602.506591796875
0.0185	-0.0	-0.0	-0.0	-3.162733793258667	62.70747375488281	-430.6131896972656	-0.9758186340332032	-64.01982879638672	-351.2781066894531	-0.0	-0.0	-0.0	-0.0	-0.0	-0.0	84852.96875	-32384.3046875	3465.412109375
0.019	-0.0	-0.0	-0.0	-3.073414087295532	62.418094635009766	-429.0073852539063	-1.1450086832046509	-64.13490295410156	-351.4901123046875	-0.0	-0.0	-0.0	-0.0	-0.0	-0.0	85053.5078125	-32375.96875	3398.7451171875
0.0195	-0.0	-0.0	-0.0	-3.135750293731689	62.302154541015625	-427.75390625	-1.6235480308532717	-64.58488464355469	-352.7484130859375	-0.0	-0.0	-0.0	-0.0	-0.0	-0.0	85257.4453125	-31922.416015625	3220.294189453125
0.02	-0.0	-0.0	-0.0	-3.149060010910034	62.58287811279297	-427.9122619628906	-2.3331620693206787	-64.47483825683594	-352.8872985839844	-0.0	-0.0	-0.0	-0.0	-0.0	-0.0	85373.6484375	-31728.8125	3083.304931640625
0.0205	-0.0	-0.0	-0.0	-2.9705677032470703	62.440521240234375	-427.2950134277344	-2.6125288009643555	-64.75304412841797	-354.3365478515625	-0.0	-0.0	-0.0	-0.0	-0.0	-0.0	85343.9609375	-31723.427734375	2977.7626953125
0.021	-0.0	-0.0	-0.0	-3.287514925003052	62.16368103027344	-427.7534790039063	-3.0427048206329346	-64.94286346435547	-354.3367004394531	-0.0	-0.0	-0.0	-0.0	-0.0	-0.0	85440.265625	-31366.205078125	2854.315185546875
0.021500000000000002	-0.0	-0.0	-0.0	-3.056180238723755	62.31538009643555	-429.2571716308594	-3.410708427429199	-64.89009094238281	-353.0443725585937	-0.0	-0.0	-0.0	-0.0	-0.0	-0.0	85578.3125	-31419.046875	2747.38720703125
0.022	-0.0	-0.0	-0.0	-2.818333387374878	62.23939895629883	-426.9422912597656	-3.7295243740081783	-65.16827392578125	-355.54022216796875	-0.0	-0.0	-0.0	-0.0	-0.0	-0.0	85717.65625	-30839.509765625	2604.469482421875
0.0225	-0.0	-0.0	-0.0	-2.626601219177246	62.55638885498047	-425.7903442382813	-4.271278858184815	-65.59680938720703	-356.625732421875	-0.0	-0.0	-0.0	-0.0	-0.0	-0.0	85815.390625	-30942.359375	2480.8818359375
0.023	-0.0	-0.0	-0.0	-2.6133627891540527	62.556427001953125	-426.3921508789063	-4.764132499694824	-65.93710327148438	-356.4321594238281	-0.0	-0.0	-0.0	-0.0	-0.0	-0.0	85694.796875	-30599.052734375	2412.31494140625
